<svg id="圖層_1" data-name="圖層 1" xmlns="http://www.w3.org/2000/svg" viewBox="0 0 644.74 166.57"><defs><style>.cls-1{fill:#00994e}</style><linearGradient id="未命名漸層_28" x1="115.69" y1="-43.98" x2="50.67" y2="-124.26" gradientTransform="matrix(1 0 0 -1 0 -18)" gradientUnits="userSpaceOnUse"><stop offset="0" stop-color="#71bf44"/><stop offset="1" stop-color="#00994e"/></linearGradient><linearGradient id="未命名漸層_18" x1="134.86" y1="-42.95" x2="57.02" y2="-139.1" gradientTransform="matrix(1 0 0 -1 0 -18)" gradientUnits="userSpaceOnUse"><stop offset="0" stop-color="#51b848"/><stop offset=".01" stop-color="#4fb748"/><stop offset=".29" stop-color="#2daa4b"/><stop offset=".56" stop-color="#14a14d"/><stop offset=".8" stop-color="#059b4e"/><stop offset="1" stop-color="#00994e"/></linearGradient></defs><path class="cls-1" d="M160.68 74.58a13.72 13.72 0 0 1-4.08-8.12 18.27 18.27 0 0 0-.47-2.78A18.68 18.68 0 0 0 144 50.6a13.72 13.72 0 0 1-1.29-.51 12.55 12.55 0 0 1-5.88-5.18 18.84 18.84 0 0 0-18.94-9.57 13.6 13.6 0 0 1-8.86-2 18.64 18.64 0 0 0-21.45 0 13.59 13.59 0 0 1-8.86 2 18.86 18.86 0 0 0-18.94 9.57 12.84 12.84 0 0 1-7.08 5.69 18.62 18.62 0 0 0-12.52 15.86 13.72 13.72 0 0 1-4.08 8.12A20.21 20.21 0 0 0 30 89.26v.25a20.53 20.53 0 0 0 17.64 20.05 20.47 20.47 0 0 0 2.8.2h29.41a5.12 5.12 0 0 1 5.06 5.12v1.2a5.39 5.39 0 0 1-4.65 5.33l-23.94 4.12a1.71 1.71 0 0 0-1.59 1.57v2.9H142v-2.94a1.71 1.71 0 0 0-1.59-1.57l-24-4.12a5.39 5.39 0 0 1-4.65-5.33v-1.14a5.12 5.12 0 0 1 5.06-5.12h29.41a20.51 20.51 0 0 0 20.58-20.43v-.1a20.21 20.21 0 0 0-6.13-14.67z"/><path d="M87.71 33.41a13.59 13.59 0 0 1-8.86 2 18.86 18.86 0 0 0-18.94 9.57 12.84 12.84 0 0 1-7.08 5.69 18.62 18.62 0 0 0-12.56 15.81 13.72 13.72 0 0 1-4.07 8.12A20.21 20.21 0 0 0 30 89.26v.25a135.27 135.27 0 0 1 42-28.83C97.32 49.33 123 46 142.76 50.1a12.55 12.55 0 0 1-5.88-5.18 18.84 18.84 0 0 0-18.94-9.57 13.6 13.6 0 0 1-8.86-2 18.64 18.64 0 0 0-21.45 0" fill="url(#未命名漸層_28)"/><path d="M72 60.68a135.27 135.27 0 0 0-42 28.84 20.53 20.53 0 0 0 17.64 20.07c11-13.11 27.07-25.25 46.64-34 21.56-9.7 43.56-13.51 61.79-11.88A18.68 18.68 0 0 0 144 50.62a13.72 13.72 0 0 1-1.29-.51 86.26 86.26 0 0 0-17.35-1.67A132.84 132.84 0 0 0 71.93 60.7" fill="url(#未命名漸層_18)"/><path class="cls-1" d="M160.68 74.58a13.72 13.72 0 0 1-4.08-8.12 18.27 18.27 0 0 0-.47-2.78C137.9 62.05 116 65.86 94.34 75.56c-19.56 8.78-35.68 20.92-46.7 34a20.51 20.51 0 0 0 2.8.2h29.41a5.12 5.12 0 0 1 5.06 5.12v1.2a5.39 5.39 0 0 1-4.65 5.33l-23.94 4.12a1.71 1.71 0 0 0-1.59 1.57v2.9H142v-2.94a1.71 1.71 0 0 0-1.59-1.57l-23.94-4.12a5.39 5.39 0 0 1-4.65-5.33v-1.14a5.12 5.12 0 0 1 5.06-5.12h29.41a20.51 20.51 0 0 0 20.56-20.45v-.08a20.21 20.21 0 0 0-6.19-14.68"/><path d="M217.11 127.33c-4.66 0-6.84-2.93-6.84-7.62 0-4.94 1.91-8.34 6.77-8.34a12.47 12.47 0 0 1 4.35.8l.56-3.07a18.45 18.45 0 0 0-5-.75c-8.14 0-10.27 5.5-10.27 11.29 0 5.69 2.29 10.71 10.32 10.71a18.13 18.13 0 0 0 5.11-.75l-.36-3.09a15.73 15.73 0 0 1-4.64.82zm20.06-2.19v-6.24c0-3.66-1.37-5.45-5.61-5.45a14.89 14.89 0 0 0-5.88 1.27l.72 2.78a10.63 10.63 0 0 1 4.8-1.28c2.55 0 2.84 1.08 2.84 2.71V120c-7.54.33-9.63 1.5-9.63 5.36s2.74 5 5.19 5a5.43 5.43 0 0 0 4.87-2.71 6.05 6.05 0 0 0 1 2.65l2.81-.52c-.75-.89-1.11-2.59-1.11-4.64zm-3.13-.42a3.84 3.84 0 0 1-3.79 2.94c-1.11 0-2.74-.42-2.74-2.38 0-2.12 1.53-2.52 6.53-2.81zm11.5-15l-3.26.83v3.64h-2.54v2.6h2.54v9.58c0 3 1.77 3.95 4.5 3.81l1.52-.08v-2.51h-.94c-1.41 0-1.82-.58-1.82-2.46v-8.34h3.34v-2.6h-3.34zm14.44 4a7.19 7.19 0 0 0-4.95 2v-8.06l-3.33.5V130h3.3v-11.84a5.33 5.33 0 0 1 4-1.77c2.23 0 2.93 1.52 2.93 3.56v10h3.28v-10.82c-.01-2.88-1.12-5.47-5.21-5.47zm21.11 11.48v-6.3c0-3.66-1.37-5.45-5.62-5.45a15 15 0 0 0-5.88 1.27l.72 2.78a10.77 10.77 0 0 1 4.8-1.28c2.54 0 2.87 1.08 2.87 2.71V120c-7.58.33-9.66 1.5-9.66 5.36s2.74 5 5.19 5a5.39 5.39 0 0 0 4.87-2.71 6.47 6.47 0 0 0 1 2.65l2.81-.52c-.75-.89-1.1-2.59-1.1-4.64zm-3.1-.42a3.9 3.9 0 0 1-3.82 2.94c-1.11 0-2.74-.42-2.74-2.38 0-2.12 1.53-2.52 6.56-2.81zm13.06.62l-4.21-11.4h-3.7l6.24 14.93a18.78 18.78 0 0 1-3.92 6.24l3.23 1.44a24.74 24.74 0 0 0 3.9-7.15c1.63-4.08 4.14-11.45 5.46-15.46h-3.64c-.83 3.2-2.21 8-3.41 11.34zm31.1-3.46c0 3.18-1.13 5.58-5 5.58s-5-2.4-5-5.58v-13.13h-3.42v14.32c0 4.83 3.64 7.35 8.36 7.35 4.86 0 8.48-2.51 8.48-7.35v-14.32h-3.4zm16.15-8.28a7.33 7.33 0 0 0-5.11 2.16 9.75 9.75 0 0 0-.53-2.1l-3 .41a12.79 12.79 0 0 1 .38 3.32V130h3.32v-11.89a5.58 5.58 0 0 1 4-1.72c2.24 0 2.93 1.52 2.93 3.56v10h3.31v-10.82c-.06-2.88-1.17-5.47-5.31-5.47zm9.49 16.34h3.34v-16h-3.34zm-.06-18.43h3.46v-3h-3.46zm11.85-1.88l-3.26.83v3.64h-2.54v2.6h2.54v9.58c0 3 1.77 3.95 4.5 3.81l1.52-.08v-2.51h-.94c-1.4 0-1.82-.58-1.82-2.46v-8.34h3.33v-2.6h-3.33zm19 10.95c0-4.18-1.79-7.22-6.24-7.22-5 0-7.64 3.82-7.64 8.78 0 4.7 2.32 8.26 8.1 8.26a13.42 13.42 0 0 0 5.55-1.08l-.62-2.64a12.39 12.39 0 0 1-4.67.91c-3.1 0-5-1.63-5-5.06h10.54zm-10.48-.42c.16-2.12 1.57-4.25 3.89-4.25 2.58 0 3.49 1.63 3.53 4.25zm27.75 4.31v-16.96l-3.23.52v7.18a6.48 6.48 0 0 0-4.44-1.76c-5 0-6.76 4-6.76 8.78 0 5.06 2.12 8.09 6.3 8.09a6.16 6.16 0 0 0 5.16-2.54 6 6 0 0 0 .75 2.35l2.84-.55a14.29 14.29 0 0 1-.63-5.12zm-3.1-1.73a10.44 10.44 0 0 1-.19 2.19 4.52 4.52 0 0 1-4.11 2.64c-2.65 0-3.63-2.35-3.63-5.39 0-3.39 1-5.91 4-5.91a4.62 4.62 0 0 1 3.76 1.89 11.81 11.81 0 0 1 .19 2.48zm25.97-4.13A4.57 4.57 0 0 0 422 114c0-4.24-3.52-5.19-7.08-5.19h-6.12V130h6.53c4.31 0 7.44-1.57 7.44-6 0-3.76-2.32-5-4.05-5.33zm-6.63-7.12h2.41c2.71 0 4.21.85 4.21 3a3 3 0 0 1-2.84 3.13h-3.77zm3 15.61h-3v-6.89H415c2.84 0 4.37 1.08 4.37 3.4.01 3-2.02 3.49-4.3 3.49zm23.34-2v-6.26c0-3.66-1.37-5.45-5.61-5.45a14.86 14.86 0 0 0-5.88 1.27l.72 2.78a10.62 10.62 0 0 1 4.77-1.28c2.58 0 2.87 1.08 2.87 2.71V120c-7.54.33-9.63 1.5-9.63 5.36s2.74 5 5.19 5a5.43 5.43 0 0 0 4.87-2.71 5.69 5.69 0 0 0 1 2.65l2.81-.52c-.77-.89-1.13-2.59-1.13-4.64zm-3.13-.42a3.83 3.83 0 0 1-3.79 2.94c-1.11 0-2.74-.42-2.74-2.38 0-2.12 1.5-2.52 6.53-2.81zm15.8-11.06a7.32 7.32 0 0 0-5.1 2.16 9.73 9.73 0 0 0-.53-2.1l-3 .41a12.8 12.8 0 0 1 .39 3.32V130h3.31v-11.89a5.58 5.58 0 0 1 4-1.72c2.23 0 2.92 1.52 2.92 3.56v10h3.32v-10.82c-.09-2.88-1.19-5.47-5.34-5.47zm16.23 8.07l6.47-7.75H470l-6 7.84v-14.25l-3.34.5V130H464v-7.87l6.1 7.87h4zm24.21-45.18h3.67a.12.12 0 0 0 .13-.12l-.55-10.28a.74.74 0 0 0-.74-.73h-4a.42.42 0 0 0-.43.41l1.54 10.29a.43.43 0 0 0 .38.43zm19.15-11.13h-4.07a.74.74 0 0 0-.73.73l-.55 10.28a.12.12 0 0 0 .11.12h3.68a.42.42 0 0 0 .42-.42l1.55-10.29a.42.42 0 0 0-.41-.41zM505 34.34h-9.32a1.64 1.64 0 0 0-1.68 1.38c-.1.28-.19.57-.3.85a30.54 30.54 0 0 1-6.78 10.85v2.94a.59.59 0 0 0 .6.59.49.49 0 0 0 .17 0l.25-.14c6-3.55 9.92-7.66 12.43-12.44A30.88 30.88 0 0 0 511.2 49.8l.22.15a.77.77 0 0 0 .21 0 .6.6 0 0 0 .55-.4V46c-1.84-2-3.64-5.61-5.08-9.45-.42-1.05-.61-2.28-2.1-2.21zm6.7 43.33c-2.75.8-5.69 1.5-8.6 2.07V62.55h7.9a.72.72 0 0 0 .71-.73v-2.37a.72.72 0 0 0-.72-.72h-7.87v-5.27h6a.71.71 0 0 0 .71-.72v-2.38a.71.71 0 0 0-.71-.71h-17.59a.71.71 0 0 0-.73.71v2.37a.72.72 0 0 0 .72.73h6v5.27h-7.87a.72.72 0 0 0-.72.72v2.38a.71.71 0 0 0 .72.72h7.87v18.16a87.49 87.49 0 0 1-9.91 1 .73.73 0 0 0-.72.73v3.66a.72.72 0 0 0 .72.72h.06c5.33-.22 16.79-2.33 23.84-5.53a.74.74 0 0 0 .43-.66v-2.82a.14.14 0 0 0-.21-.13zm25.37-3A49.18 49.18 0 0 0 541 63.89c.19-1.14-.75-1-.75-1H536a38.64 38.64 0 0 1-1.76 7.58 27.28 27.28 0 0 1-3.72-10h10a.73.73 0 0 0 .75-.72V37.09a2.78 2.78 0 0 0-3-2.75h-23a.73.73 0 0 0-.72.72v51a.74.74 0 0 0 .75.75 59.47 59.47 0 0 0 14.43-3.3.72.72 0 0 0 .46-.69V79.5s0-.19-.23-.13c-3.53.75-7 1.28-9.89 1.63V60.46h3.79c3.23 11.66 10.51 21.13 19.85 26.32a.62.62 0 0 0 .26.06.7.7 0 0 0 .72-.69v-4.34a35.6 35.6 0 0 1-7.59-7.18zm-16.91-35.95h15.54v6.49h-15.54zm0 17.37v-6.5h15.54v6.5zm-116.48-7.15h-7.8V38.07a3.14 3.14 0 0 0-3.13-3.17h-3.36a.73.73 0 0 0-.69.65.12.12 0 0 0 0 .07v13.32h-11.76V35.62a.71.71 0 0 0-.72-.72h-3.3a3.17 3.17 0 0 0-3.17 3.1v10.9h-10.22V37a.72.72 0 0 0-.72-.72h-3.3a3.15 3.15 0 0 0-3.17 3.17v9.47H347a.59.59 0 0 0-.59.59v3.13a.59.59 0 0 0 .59.59h5.32v30.4a3.19 3.19 0 0 0 3.17 3.17H401a.72.72 0 0 0 .72-.72v-2.86a.73.73 0 0 0-.72-.75h-41.47V53.25h10.22v16.06a3.17 3.17 0 0 0 3.17 3.17h19.78a3.17 3.17 0 0 0 3.17-3.17V53.25h7.8a.58.58 0 0 0 .55-.59v-3.13a.58.58 0 0 0-.54-.59zm-15 19.16h-11.74V53.25h11.75zm187.97-21.15h-6c-2 2.6-6.09 8.33-13.23 10.76s-.25.16-.25.25v2.93s-.17 1.31 1.11.87a45 45 0 0 0 5.53-2.24v24.13a3.16 3.16 0 0 0 3.19 3.16h3.3a.73.73 0 0 0 .72-.73V54.86a33 33 0 0 0 6.08-7.12c.44-.89-.45-.79-.45-.79zm0-12.61h-6c-2 2.59-6.1 8.33-13.23 10.75-.05 0-.25.15-.25.25v2.93s-.17 1.3 1.11.87c12.15-4.07 16.26-10.3 18.78-14 .5-.89-.4-.8-.4-.8zm6.39 6.23h28.53a.58.58 0 0 0 .57-.58v-3.16a.58.58 0 0 0-.57-.57h-28.52a.57.57 0 0 0-.57.57V40a.58.58 0 0 0 .57.57zm31.1 10.2h-34.5a.58.58 0 0 0-.58.57v3.17a.58.58 0 0 0 .58.57h19.8v25.53c0 1.56-.45 2.4-3 2.4h-2.59c-.17 0-.21.11-.21.17v3.05a.57.57 0 0 0 .58.57h5.48c5.2-.13 6.94-1.22 6.94-6.22v-25.5h7.52a.57.57 0 0 0 .58-.57v-3.16a.58.58 0 0 0-.58-.58zM236.88 69.54v2.68a.57.57 0 0 1-.36.52A63.74 63.74 0 0 1 226.24 76a59.08 59.08 0 0 1-9.24 1.47.58.58 0 0 1-.59-.59v-4.24a.59.59 0 0 1 .59-.59 86.69 86.69 0 0 0 19.46-2.84.31.31 0 0 1 .42.33zm0-15v8.86a3.08 3.08 0 0 1-3.1 3.1h-14.3a3.08 3.08 0 0 1-3.1-3.1v-8.85a3.08 3.08 0 0 1 3.1-3.1h14.33a3.07 3.07 0 0 1 3.07 3.1zm-6.83.13h-6.85v8.55h6.85zm6.83-.13v8.86a3.08 3.08 0 0 1-3.1 3.1h-14.3a3.08 3.08 0 0 1-3.1-3.1v-8.85a3.08 3.08 0 0 1 3.1-3.1h14.33a3.07 3.07 0 0 1 3.07 3.1zm-6.83.13h-6.85v8.55h6.85zm6.83 17.53v-2.66a.31.31 0 0 0-.42-.33A86.69 86.69 0 0 1 217 72.05a.59.59 0 0 0-.59.59v4.24a.58.58 0 0 0 .59.59 59.08 59.08 0 0 0 9.24-1.47 63.74 63.74 0 0 0 10.29-3.26.57.57 0 0 0 .35-.52zm26.38-33.72v45.23a3.1 3.1 0 0 1-3.1 3.1h-50.41a3.12 3.12 0 0 1-3.1-3.1V38.49a3.13 3.13 0 0 1 3.13-3.1h50.38a3.1 3.1 0 0 1 3.1 3.1zm-19.72 5.84h5.12c-.33-2.22-.65-4-.85-5.16h-4.34c-.03 1-.03 2.84.07 5.18zm-29.84 0h24.58c-.23-2.38-.29-4.18-.33-5.16H213.7zm42.51-5.16h-3.3l1.34 7.35c.07 1.6-1.24 1.6-1.24 1.6h-9.17a74.52 74.52 0 0 0 3.1 15.12 53.62 53.62 0 0 0 2.64-5.52.41.41 0 0 1 .55-.23l3.63 1.52s.42.13.19.62a67.87 67.87 0 0 1-5.06 8.75 42.43 42.43 0 0 0 6.27 10.29.26.26 0 0 1 0 .42l-1.73 2a.37.37 0 0 1-.56-.07 34.59 34.59 0 0 1-6.85-8.91 35.12 35.12 0 0 1-9.66 8.29c-.36.29-.52-.16-.52-.16L234.73 78s-.23-.33.06-.52A37.16 37.16 0 0 0 244 68a76 76 0 0 1-5.26-19.85h-25V83h42.51zm-19.33 15.39v8.85a3.08 3.08 0 0 1-3.1 3.1h-14.3a3.08 3.08 0 0 1-3.1-3.1v-8.85a3.08 3.08 0 0 1 3.1-3.1h14.33a3.07 3.07 0 0 1 3.07 3.1zm-6.83.13h-6.85v8.55h6.85zm6.4 14.53A86.69 86.69 0 0 1 217 72.05a.59.59 0 0 0-.59.59v4.24a.58.58 0 0 0 .59.59 59.08 59.08 0 0 0 9.24-1.47 63.74 63.74 0 0 0 10.29-3.26.57.57 0 0 0 .36-.52v-2.68a.31.31 0 0 0-.43-.33zm69.48-6.11h-3.25a.71.71 0 0 0-.71.7v16.81c0 1.55-.31 2.4-2.85 2.4h-1.47c-.24 0-.21.2-.21.2v2.72a.88.88 0 0 0 .88.88H301c6.08 0 8-.82 8-6.1V66.2a3.1 3.1 0 0 0-3.07-3.1zm27.49-7.1h-35.86c1.27-1.63 2.44-3.28 3.5-4.9h25.59a.57.57 0 0 0 .57-.58v-3.11a.58.58 0 0 0-.57-.58h-23c1-1.75 1.84-3.41 2.56-4.9h25.17a.57.57 0 0 0 .57-.58v-3.09a.57.57 0 0 0-.57-.57h-23.3c.25-.62.45-1.15.58-1.54.2-.58.17-1-.47-1.16-1.37-.29-4.16-.86-5-1.07a1 1 0 0 0-1.28.82l-.45 1.46c-.15.45-.33 1-.52 1.5h-20.75a.58.58 0 0 0-.58.57v3.09a.58.58 0 0 0 .58.58h19a80.74 80.74 0 0 1-2.4 4.9h-12a.58.58 0 0 0-.57.58v3.09a.57.57 0 0 0 .57.58h9.56c-1 1.65-2.16 3.3-3.39 4.9h-13a.58.58 0 0 0-.57.58v3.09a.58.58 0 0 0 .57.58h9.42a32.73 32.73 0 0 1-9.46 7.08.75.75 0 0 0-.47 1.12l.68 1.66a.73.73 0 0 0 1 .37 31.72 31.72 0 0 0 6.27-3.1 83.56 83.56 0 0 1 11.43 4.19c.43.22.61-.12.61-.12l1.66-3.49a.43.43 0 0 0-.18-.65 68 68 0 0 0-9.56-2.81 48.51 48.51 0 0 0 4.53-4.25h22.51a39.4 39.4 0 0 0 4.52 4 36.21 36.21 0 0 1-9.41 2.49c-.31 0-.44.24-.35.59.46 1.39.61 2.48 1.06 3.86.15.46.37.45.68.38a46.75 46.75 0 0 0 11.56-4.87 42.28 42.28 0 0 0 7.7 3.79.74.74 0 0 0 1-.38l.68-1.66a.75.75 0 0 0-.48-1.12 40 40 0 0 1-10.49-7.1h10.5a.58.58 0 0 0 .57-.58v-3.08a.57.57 0 0 0-.52-.56zm-33.68 20.85c-.18-1.24-.21-1.08-.46-2.33a.4.4 0 0 0-.57-.31c-5.73 3-11.42 4.45-17.62 6.17a.49.49 0 0 0-.33.73c.5 1.08 1.36 3 1.73 3.77a.75.75 0 0 0 1 .33 100.09 100.09 0 0 0 16-7.59.65.65 0 0 0 .25-.77zm29.66 3.78a85.85 85.85 0 0 0-16.56-5.76c-.51-.17-.6.22-.6.22l-1 2.27s-.24.48.23.64A120.19 120.19 0 0 1 326 85a1.16 1.16 0 0 0 1.44-.26c.9-1.33 1.28-1.94 2.18-3.27a.55.55 0 0 0-.23-.84zm144.47-42.92h-13a3.15 3.15 0 0 0-3.12-2.82h-2.88a.73.73 0 0 0-.73.71v2.1h-17.2v-2.1a.73.73 0 0 0-.73-.71h-2.88a3.16 3.16 0 0 0-3.13 2.82h-13a.58.58 0 0 0-.57.57v3a.58.58 0 0 0 .57.58h12.94v2.31a.72.72 0 0 0 .73.72h5.32a.72.72 0 0 0 .72-.72v-2.34h17.22v2.31a.72.72 0 0 0 .72.72h5.31a.73.73 0 0 0 .73-.72v-2.31h12.94a.57.57 0 0 0 .57-.58v-3a.57.57 0 0 0-.53-.54zm0 23.15a.59.59 0 0 0 .59-.59v-2.94a.59.59 0 0 0-.59-.59h-9.44v-5.39h5.19a.58.58 0 0 0 .55-.59v-3a.58.58 0 0 0-.55-.59H421.5a.58.58 0 0 0-.59.59v3a.58.58 0 0 0 .59.59h5.16v5.39h-9.44a.58.58 0 0 0-.55.59v2.94a.58.58 0 0 0 .55.59h9.44v5.39h-5.16a.58.58 0 0 0-.59.59v3a.58.58 0 0 0 .59.55h20.67v5.42h-24.95a.57.57 0 0 0-.55.55v3a.58.58 0 0 0 .55.59h24.94v3.79a3.16 3.16 0 0 0 3.17 3.13h2.87a.72.72 0 0 0 .72-.72v-6.2h24.94a.58.58 0 0 0 .59-.59v-3a.58.58 0 0 0-.59-.55h-24.94v-5.45h20.7a.57.57 0 0 0 .55-.55v-3a.58.58 0 0 0-.55-.59h-5.19v-5.37zm-31.7 5.39h-8.75v-5.4h8.75zm0-9.5h-8.75v-5.4h8.75zm15.51 9.5h-8.75v-5.4h8.75zm0-9.5h-8.75v-5.4h8.75z"/></svg>