<?xml version="1.0" encoding="utf-8"?>
<!-- Generator: Adobe Illustrator 19.0.0, SVG Export Plug-In . SVG Version: 6.00 Build 0)  -->
<svg version="1.1" id="圖層_1" xmlns="http://www.w3.org/2000/svg" xmlns:xlink="http://www.w3.org/1999/xlink" x="0px" y="0px"
	 viewBox="0 0 421.234436 170.7237396" style="enable-background:new 0 0 421.234436 170.7237396;" xml:space="preserve">
<style type="text/css">
	.st0{fill:#C9191D;}
	.st1{fill:#FFFFFF;}
	.st2{fill:#333333;}
</style>
<g transform="translate(0 4)">
	<path id="XMLID_20_" class="st0" d="M102.292366-4H30.8625507C13.8463612-4,0,9.8231583,0,26.8123837v71.3125916
		c0,16.9887466,13.8463612,30.8123856,30.8625507,30.8123856h71.4298172c17.0166702,0,30.8630295-13.8236389,30.8630295-30.8123856
		V26.8123837C133.1553955,9.8231583,119.3090363-4,102.292366-4z"/>
	<path class="st1" d="M46.1310539,20.9692974c1.4714355,1.6692085,1.2492752,3.0263691,0.364975,5.0421829
		c-0.8847847,2.0162983-4.2036781,7.7368221-9.8557053,12.7362804c-5.7039604,5.0455437-10.9068642,7.8112297-13.0808334,8.7286453
		c-2.1739674,0.9178963-3.4920025,0.6673012-4.9634342-1.0019073l-1.7762985-2.0148544
		c-1.4709492-1.6692085-1.6344414-3.9269791-0.3644905-5.0421867c0,0,8.6295109-5.619709,12.3960876-8.9230747
		c3.7665768-3.302887,10.5399685-12.5418491,10.5399685-12.5418491c1.2699509-1.1156845,3.4924812-0.6672974,4.9634323,1.0019073
		L46.1310539,20.9692974z M46.0641174,44.9847908l-1.802742-2.0441399c-1.4930687-1.6936913-3.7584-2.1363144-5.0653763-0.988945
		c0,0-6.9806442,9.4698753-10.8525276,12.8625336c-3.869482,3.3945808-12.7245169,9.1832771-12.7245169,9.1832771
		c-1.3064966,1.1478462-1.1535826,3.4493065,0.339488,5.1425209l1.8008194,2.0446243
		c1.49259,1.6931992,2.8389988,1.9399643,5.0668201,0.9884567c1.1790695-0.5035934,3.2645588-1.5847168,5.806385-3.2212753
		v34.868988c0,2.085907,1.5661602,3.7771988,3.4987354,3.7771988h3.0616379c1.9325714,0,3.4987335-1.6912918,3.4987335-3.7771988
		V60.736393c4.2695541-4.43153,6.9368858-8.8697891,7.7120323-10.6110001
		C47.3206062,48.0639648,47.5552635,46.6780014,46.0641174,44.9847908"/>
	<path id="XMLID_17_" class="st1" d="M114.6387787,51.5613785H80.4203033c-0.073082,0-0.1336746,0.0355263-0.204834,0.0398445
		c-0.0711746-0.0043182-0.129837-0.0398445-0.201004-0.0398445H73.127594c-1.2584152,0-2.2802429-1.0182304-2.2802429-2.2764969
		v-4.7723846c0-1.2563438,1.0218277-2.2764969,2.2802429-2.2764969h6.8868713c2.0898132,0,3.7834091-1.6850471,3.7834091-3.7651939
		v-2.5102882c0-2.0801468-1.6935959-3.7671165-3.7834091-3.7671165H73.127594c-1.2584152,0-2.2802429-1.0177498-2.2802429-2.2745762
		v-8.1650429c0-2.0863876-1.6878204-3.7795963-3.7713852-3.7795963h-2.5144196c-2.0835648,0-3.773304,1.6932087-3.773304,3.7795963
		v8.1650429c0,1.2568264-1.0194244,2.2745762-2.2783165,2.2745762h-7.2003937c-2.089817,0-3.7858124,1.6869698-3.7858124,3.7671165
		v2.5102882c0,2.0801468,1.6959953,3.7651939,3.7858124,3.7651939h7.2003937c1.2588921,0,2.2783165,1.020153,2.2783165,2.2764969
		v4.7723846c0,1.2582664-1.0194244,2.2764969-2.2783165,2.2764969h-7.2003937c-2.089817,0-3.7858124,1.6869659-3.7858124,3.7647171
		v2.5131683c0,2.0777473,1.6959953,3.7647133,3.7858124,3.7647133h7.2003937c1.2588921,0,2.2783165,1.0182304,2.2783165,2.2764969
		v4.2999916c0,1.2563477-1.0194244,2.2764969-2.2783165,2.2764969h-7.2003937c-2.089817,0-3.7858124,1.685051-3.7858124,3.7651978
		v2.5102844c0,2.0801544,1.6959953,3.7671204,3.7858124,3.7671204h7.2003937c1.2588921,0,2.2783165,1.017746,2.2783165,2.2745743
		v8.3738785c0,1.0791931-0.7535057,2.005249-1.8089943,2.2289658c-6.3088837,1.3312378-12.6259384,2.5832596-12.6259384,2.5832596
		c-2.0984764,0.5309601-3.356884,2.7095184-2.8101463,4.8669662l0.6616631,2.6043777
		c0.5467377,2.1574402,1.8301544,2.9245911,4.7908058,2.9433136c2.9606552,0.0211258,7.0984535-0.4618301,16.5439873-2.8785019
		c9.3613815-2.3936386,15.2096024-6.40271,17.4605026-7.9331665c2.2489853-1.5280762,3.3544769-2.7090454,2.8077393-4.866478
		l-0.6616592-2.6024704c-0.546257-2.1574402-2.6904068-3.4766693-4.7884064-2.9457092c0,0-2.7471466,1.3672333-6.290123,2.9601135
		c-1.5074997,0.6792984-3.2203217-0.4219818-3.2203217-2.0734253v-3.2611237c0-1.2568283,1.0218277-2.2745743,2.2802429-2.2745743
		h6.8868713c2.0898132,0,3.7834091-1.6869659,3.7834091-3.7671204v-2.5102844c0-2.0801468-1.6935959-3.7651978-3.7834091-3.7651978
		H73.127594c-1.2584152,0-2.2802429-1.0201492-2.2802429-2.2764969v-4.2999916c0-1.2582664,1.0218277-2.2764969,2.2802429-2.2764969
		h6.8868713c0.071167,0,0.1298294-0.0355225,0.201004-0.0398445c0.0711594,0.0043221,0.131752,0.0398445,0.204834,0.0398445
		h8.5141068c1.2834167,0,2.3239975,1.0388756,2.3239975,2.318264v39.898201c0,2.0863876,1.5661697,3.7776794,3.4968185,3.7776794
		h3.0635605c1.9325714,0,3.4987335-1.6912918,3.4987335-3.7776794v-39.898201c0-1.2793884,1.0386581-2.318264,2.3220749-2.318264
		h10.9991837c2.0898209,0,3.7858124-1.6869659,3.7858124-3.7647133v-2.5131683
		C118.4245911,53.2483444,116.7285995,51.5613785,114.6387787,51.5613785"/>
	<path class="st1" d="M96.3041229,31.2031593c-2.3831406,0-4.315239-1.9289227-4.315239-4.3081551
		s1.9320984-4.3081551,4.315239-4.3081551s4.315239,1.9289227,4.315239,4.3081551S98.6872635,31.2031593,96.3041229,31.2031593
		 M96.8460464,17.4227276c-0.1851273-0.0100822-0.3591995,0.0264034-0.5419235,0.0268841
		c-0.1827316-0.0004807-0.3568039-0.0369663-0.5419312-0.0268841c-5.6553955,0.3067646-9.3536835,5.6009865-8.4063873,11.4568901
		c0.9299774,5.7526913,7.736557,17.7160511,7.736557,17.7160511c0.2365799,0.5165596,0.7256088,0.7637939,1.2117615,0.7556343
		c0.486145,0.0081596,0.9751892-0.2390747,1.2117691-0.7556343c0,0,6.806572-11.9633598,7.736557-17.7160511
		C106.1997375,23.0237141,102.501442,17.7294922,96.8460464,17.4227276"/>
	<path class="st2" d="M216.8231964,90.9621277l0.0591431-51.0766487c0.0019226-2.252491-1.3440094-3.5995674-3.6006622-3.6048508
		l-50.7384186-0.0580902c-1.1584015,0-2.0624237,0.3274078-2.6875305,0.9707069
		c-0.6029968,0.6207314-0.9107513,1.5035782-0.9131622,2.6250229l-0.0586548,51.0761795
		c-0.0024109,2.353302,1.2430115,3.6000519,3.6021118,3.6053238l50.736969,0.0580902
		c1.1160736,0,1.9965363-0.3043671,2.62117-0.9054184C216.490921,93.0288391,216.8207855,92.1234207,216.8231964,90.9621277z
		 M217.5122528,25.5236816c7.0301971,0.0076809,10.5957642,3.5765285,10.5880737,10.5951653l-0.0682831,58.6353645
		c-0.0101013,7.1261673-3.5824127,10.5778809-10.6125793,10.5706863l-59.1649933-0.0686569
		c-7.1403046-0.0072021-10.5981598-3.4689865-10.5880737-10.5951614l0.0682983-58.6348877
		c0.0076904-7.0186348,3.4722748-10.5783615,10.6125641-10.5706787L217.5122528,25.5236816z M160.5879211,164.7654877
		c-1.4454651,1.2836914-3.6309662,1.9255524-6.5565186,1.9255524c-3.2765808,0-6.1377106-1.4416351-8.6449127-4.3964844
		c-0.7068481-0.7705078-1.0285492-1.4752655-1.0285492-2.0835114c0-0.5141602,0.1601257-0.9971008,0.5457764-1.4123535
		c0.3544006-0.3845367,0.8040009-0.611618,1.3512115-0.611618c0.6429138,0,1.1886902,0.2890015,1.7027283,0.8031464
		c1.3502502,1.5069427,2.2167664,2.4382935,2.6682892,2.7906647c1.1242523,0.9313354,2.3143768,1.3816376,3.533844,1.3816376
		c1.7041626,0,2.8943024-0.385025,3.6002045-1.1550446c0.6751251-0.7700348,1.0280762-1.99086,1.0280762-3.7219849v-11.906723
		c0-0.5760803,0.1947479-1.0566406,0.5799103-1.4416656c0.3861389-0.3552246,0.8674774-0.5463104,1.4772034-0.5463104
		c0.5799103,0,1.061264,0.1910858,1.4469147,0.5463104c0.3856506,0.385025,0.578949,0.8655853,0.578949,1.4416656v12.0353851
		C162.871048,161.2998352,162.0992737,163.4193573,160.5879211,164.7654877z M194.089386,166.1147614
		c-0.4500885,0.385025-0.9641113,0.5760956-1.478653,0.5760956c-0.7068481,0-1.2853241-0.3192596-1.7041626-0.9279785
		l-7.4879456-10.4621887l-3.6968536,2.7608795v6.6417847c0,0.5756073-0.1913757,1.0595245-0.5457764,1.4411774
		c-0.3851624,0.3552551-0.8684235,0.5463257-1.4141998,0.5463257c-0.6424255,0-1.1564636-0.1910706-1.5426025-0.5463257
		c-0.3856506-0.3816528-0.5784607-0.8329163-0.5784607-1.4411774v-18.324295c0-0.5765686,0.1615601-1.0268707,0.5472107-1.4090118
		c0.352951-0.388382,0.8025513-0.5794373,1.3815155-0.5794373c0.6097107,0,1.123764,0.1910553,1.5425873,0.5136719
		c0.3856506,0.385025,0.609726,0.8655701,0.609726,1.4747772v6.6739349l10.9934387-8.276886
		c0.3861237-0.2899628,0.8030243-0.4512787,1.2199249-0.4512787c0.547226,0,1.0285492,0.227066,1.4468994,0.6125641
		c0.3861542,0.4147949,0.6102142,0.8982239,0.6102142,1.4743195c0,0.6418457-0.2885132,1.1550293-0.8030396,1.5400543
		l-6.5247803,4.9432831l7.6504822,10.7151947c0.2572479,0.385498,0.4169006,0.7705078,0.4169006,1.1257629
		C194.7318115,165.2789612,194.5062866,165.7297363,194.089386,166.1147614z M217.1634064,150.2621155
		c-1.1569519-1.5400848-2.7639923-2.3101044-4.8855438-2.3101044c-2.1210785,0-3.7608032,0.7700195-4.9182281,2.3101044
		c-1.0598297,1.4113922-1.5738525,3.1790161-1.5738525,5.3575897c0,2.1526337,0.5140228,3.8837585,1.6070404,5.2327576
		c1.1569366,1.4747925,2.7952271,2.2117004,4.8850403,2.2117004c2.1215515,0,3.7285919-0.736908,4.8528442-2.2117004
		c0.9968262-1.3163452,1.5113373-3.0474854,1.5113373-5.2327576
		C218.6420441,153.4411316,218.127533,151.6442413,217.1634064,150.2621155z M220.120224,163.5480804
		c-1.7998657,2.0834961-4.4037323,3.1430054-7.8091888,3.1430054c-3.3424377,0-5.9467773-1.0595093-7.8423309-3.1761475
		c-1.8325653-2.0210876-2.7327271-4.7162018-2.7327271-8.0858307c0-3.2716827,0.9001617-5.9043884,2.7644653-7.9250031
		c1.8965149-2.0863953,4.4681549-3.1463776,7.7134705-3.1463776c3.1823273,0,5.7534943,1.0599823,7.6822205,3.1790314
		c1.8311157,2.0537262,2.7625275,4.6835632,2.7625275,7.8923492
		C222.6586609,158.8942566,221.791687,161.5898743,220.120224,163.5480804z M246.373291,149.4589996
		c-0.547226-0.6087189-1.2540741-0.9284515-2.0898132-0.9284515h-7.4235229c-0.771286,0-1.1569366,0.480545-1.1569366,1.4416504
		v5.0090485h8.5804596c0.8357391,0,1.5425873-0.3226013,2.0898132-0.964447
		c0.5145264-0.6413879,0.8030396-1.3787689,0.8030396-2.2769928
		C247.1763306,150.873764,246.8878174,150.1042023,246.373291,149.4589996z M249.2646942,156.6168518
		c-1.2858276,1.3461151-2.8914032,2.0206299-4.7883911,2.0206299h-8.7732849v6.2236328
		c0,1.2208252-0.7088013,1.8300323-2.0571289,1.8300323c-1.3512268,0-2.0253754-0.641861-2.0253754-1.859787v-16.7184906
		c0-0.9937286,0.3539124-1.7968903,1.0924988-2.3729706c0.6429291-0.5131989,1.509903-0.8026886,2.5384674-0.8026886h9.5133209
		c1.8657532,0,3.4083405,0.6716156,4.6282806,1.9548645c1.1896515,1.349472,1.7998657,2.9552917,1.7998657,4.8151093
		C251.1929474,153.6317749,250.5500336,155.2678528,249.2646942,156.6168518z M267.5379333,149.9428558l-4.0180359,8.4055634
		h8.0664063L267.5379333,149.9428558z M278.4328003,166.0818787c-0.5145264,0.4176636-1.0910645,0.641861-1.7373657,0.641861
		c-0.8338013,0-1.4108276-0.4176636-1.7993469-1.2505951l-1.6383057-3.4987488h-11.4093628l-1.6382751,3.4987488
		c-0.3856506,0.8329315-1.0285645,1.2505951-1.8657532,1.2505951c-0.6429138,0-1.1901245-0.2241974-1.6714783-0.641861
		c-0.5140381-0.4503021-0.7381134-0.9308472-0.7381134-1.5727081c0-0.3192444,0.0653839-0.6744995,0.2567902-1.0268707
		l9.1281738-17.9037476c0.3856201-0.8026886,1.1242371-1.2208252,2.2181702-1.2208252
		c1.0915527,0,1.8330688,0.4181366,2.2485046,1.2208252l9.0979004,17.9037476
		c0.1913452,0.3523712,0.2870483,0.7076263,0.2870483,1.0268707
		C279.1713867,165.1510315,278.9141235,165.6315765,278.4328003,166.0818787z M303.9733887,147.4712219l-8.2279968,10.7156677
		v6.4833374c0,0.6087341-0.1913757,1.0926514-0.5799255,1.4743042c-0.3827515,0.3552551-0.8342896,0.5463257-1.4113159,0.5463257
		c-0.6126099,0-1.0939636-0.1910706-1.4801025-0.5463257c-0.3856506-0.3816528-0.5765381-0.8655701-0.5765381-1.4743042v-6.4833374
		l-8.2284851-10.7156677c-0.3226318-0.385025-0.4510498-0.7700348-0.4510498-1.1881714
		c0-0.5429688,0.2240906-0.9937439,0.7088013-1.3787689c0.4481506-0.3523865,0.9953918-0.5463257,1.5724182-0.5463257
		c0.5799255,0,1.0612488,0.2894897,1.480072,0.8358002l6.9421997,9.530365l6.9094543-9.530365
		c0.3856506-0.5463104,0.8996887-0.8358002,1.4767456-0.8358002c0.579895,0,1.0944214,0.1939392,1.5757446,0.5463257
		c0.4510498,0.385025,0.708313,0.8358002,0.708313,1.3787689
		C304.3917236,146.7011871,304.2306519,147.0861969,303.9733887,147.4712219z M282.535675,80.7397461
		c0.401062-0.1968307,0.7025452-0.2962036,1.1016541-0.4978333c6.4113159-3.1900711,12.0220032-6.9821472,17.03302-11.3714371
		c3.8069458-3.3936234,6.012207-6.2898865,6.4156494-8.4890938c0.0019226-0.499752-0.6006165-0.7983589-1.5998535-0.8007584
		l-46.8501587-0.054245c0.1019287,0.1992302,0.1990662,0.3984566,0.2986145,0.3984566
		c1.0016174,1.1017609,1.8993835,2.1017494,2.5995178,2.9025078c5.1990662,6.4007835,11.6983643,12.1068993,19.6007996,17.1135597
		C281.5359802,80.2395172,282.0370178,80.5405121,282.535675,80.7397461z M419.8389893,33.5300636
		c0.9016113,0.5996056,1.3978271,2.0969467,1.3954468,4.3960075c-0.0019226,1.7988243-0.3034363,3.0974159-0.8039856,3.6989479
		c-0.9020996,1.1972961-2.3052368,1.6946487-4.3061218,1.6927261l-7.8096313-0.0091209l-0.0610962,52.7689056
		c-0.0024109,2.3984375-1.1059265,4.3960037-3.1092224,5.9936829c-1.8037109,1.296196-4.7071533,2.1920013-8.711731,2.5880661
		c-4.0041199-0.0043259-78.6235046,4.561142-114.210022-12.3263092c-7.6119995,3.1900787-16.4232788,6.4780807-26.6396332,9.7651291
		c-5.7082825,1.6927261-10.1119843,2.5842133-13.1168823,2.7829666c-1.6022339-0.0024033-3.0005798-0.6039276-4.0021973-1.6044006
		c-0.9992218-1.0019073-1.5002747-2.1017456-1.497879-3.0993347c0.0019226-2.2985764,0.6049194-3.8981705,2.0080719-4.6950912
		c12.7158661-3.3820953,23.3332367-6.6696167,31.9425507-9.8577728
		c-5.6000977-4.0023499-11.4992676-9.3056946-17.6970673-16.1111755c-2.5995331-2.7018433-3.9002686-4.8011856-3.997879-6.4007874
		c0.0024109-1.5002213,0.4034271-2.6970329,1.3055267-3.5952492l-4.5032501-0.0043182
		c-1.903717-0.0023994-3.1049042-0.4051781-3.605484-1.4051666c-0.7977448-0.801239-1.0968323-2.0004539-1.0944366-3.599575
		c0.0019226-1.5002213,0.4029694-2.6994324,1.3050385-3.5952492c0.8001556-0.6989822,1.9037323-1.0974426,3.4064331-1.0950394
		l30.5307465,0.0340843l0.0134583-13.2926788l-33.6356659-0.0384064c-1.701767-0.0023994-3.0005646-0.4027786-3.900238-1.203537
		c-0.8020935-0.6994629-1.1983032-1.9999733-1.1963959-3.9010582c0.0019379-1.6984882,0.4034424-2.9951611,1.2055206-3.8938522
		c0.8996887-0.798357,2.2028198-1.1963367,3.9045715-1.194416l33.6361542,0.0388851l0.0091553-8.5956669
		c0.0019226-1.4008465,0.5029602-2.696559,1.6065369-3.8957748c0.7001343-0.6994629,2.1028137-1.0974426,4.3061218-1.095521
		c1.9032288,0.0024004,3.3015442,0.405179,4.1017151,1.1041613c1.1011658,1.002388,1.6993713,2.3009815,1.6974487,3.9005756
		l-0.0091553,8.5956688l35.237915,0.0408058c1.8017883,0.0019207,3.1000977,0.4022999,3.9002686,1.203537
		c0.8025513,0.6015282,1.198761,1.9006004,1.1963501,3.8981762c-0.0019226,1.5995979-0.4010315,2.69944-1.0035706,3.4958725
		c-0.9020691,1.0993652-2.3047485,1.5971985-4.1069946,1.594799l-35.2373962-0.040329l-0.0139771,13.2917213l21.5228271,0.025444
		c3.6030579,0.2035484,6.00354,0.6063271,7.3066406,1.3077126c2.1980286,1.4027672,3.2972717,3.5021172,3.2948608,6.5001564
		c-0.303894,3.0993423-2.010498,6.8938217-5.2192383,11.3872833c-4.5099792,5.6926804-10.7236633,11.081955-18.6376648,16.0708466
		c-0.8025513,0.4978333-1.6022339,0.895813-2.3023376,1.2942734c12.0123596,4.6523666,30.0133362,6.7425919,47.5430908,7.5750351
		l0.0389404-32.2050667c-0.2014771,0.201149-0.3014832,0.4003792-0.4034424,0.5991249
		c-1.2030945,1.5976791-2.7033997,2.2947388-4.7071533,2.2923431c-1.9012756-0.0024033-3.50354-0.5026398-4.7018433-1.6020012
		c-1.1016235-0.9030113-1.5978699-2.2016029-1.5959778-3.8012009c0-0.9999847,0.5010681-2.0969467,1.3055725-3.2961655
		c7.5215759-12.1861191,13.2414246-24.9718418,17.1599426-38.4584694c0.7025452-1.7964258,1.9061279-2.8957872,3.5083313-3.1924725
		c1.8018188,0.0024004,3.4040527,0.4027796,4.6028137,1.002389c1.3007202,0.703784,2.000885,2.1017504,1.9989319,4.1017237
		c-0.2019348,1.4978199-0.4034119,2.8981876-0.7073364,4.1967793c-1.305542,4.9936962-3.1135559,10.2903156-5.5226746,15.8831425
		l-0.0649109,54.8500061c22.2171631,0.4704742,41.3327942-0.7335434,43.0465698-0.7325897
		c1.0016479,0.0024109,1.5021973-0.4973526,1.5021973-1.497818l0.0567322-48.8707237l-32.0334473-0.0360069
		c-1.5997925-0.0023994-2.8009644-0.4027786-3.7006836-1.203537c-1.0016174-0.801239-1.3983459-2.1992073-1.3959351-4.1991806
		c0.0019226-2.1992035,0.4034729-3.6970253,1.4050903-4.4958649c0.7001038-0.5991249,1.9036865-0.9956627,3.7055054-0.9932632
		l32.0334473,0.0360069l0.0134583-13.2922039c0.004303-2.8981857,1.9104614-4.495862,5.5135193-4.6902895
		c3.6035767,0.0048008,5.4029846,1.6067953,5.4981689,4.7037344l-0.0134888,13.2926826l7.8091736,0.0091171
		C417.7376404,32.428299,419.0388184,32.8262787,419.8389893,33.5300636z M377.1401672,79.7512283
		c-0.5982056-0.3009949-0.9992371-0.9006042-1.4002686-1.7013626c-2.2937012-4.6994247-6.0920105-11.7991867-11.2862549-21.1999321
		c-0.4981995-0.8012352-0.79776-1.6000748-0.79776-2.6000633c0.0024109-0.5991287,0.1019287-1.1992149,0.4010315-1.9975777
		c0.5029907-0.9006119,1.3055115-1.5971909,2.407196-2.1968002c0.802063-0.2966843,1.7017517-0.4978333,2.7033997-0.4959145
		c1.4026489,0.2016296,2.7014771,0.7018623,3.9026489,1.5050201c2.0984802,2.2011261,4.9971008,6.8011665,8.5934448,14.0007858
		c1.996521,4.3979263,3.0933533,7.9999008,3.0890503,10.9979401c0,1.3979721-0.4034424,2.2961807-1.1035767,2.8962708
		c-1.0040283,0.9999847-2.3047485,1.3955688-4.0065308,1.3931656
		C378.4413757,80.3508377,377.6412048,80.1516113,377.1401672,79.7512283z"/>
</g>
</svg>
